<?xml version="1.0" standalone="no"?><!DOCTYPE svg PUBLIC "-//W3C//DTD SVG 1.1//EN" "http://www.w3.org/Graphics/SVG/1.1/DTD/svg11.dtd"><svg t="1741352633485" class="icon" viewBox="0 0 1024 1024" version="1.1" xmlns="http://www.w3.org/2000/svg" p-id="1080" xmlns:xlink="http://www.w3.org/1999/xlink" width="200" height="200"><path d="M801.92 141.624889l80.455111 80.455111L711.395556 393.045333l-80.455112-80.455111z" fill="#907935" p-id="1081"></path><path d="M897.450667 207.004444l-80.455111-80.455111a21.333333 21.333333 0 0 0-30.151112 0l-170.979555 170.951111a21.333333 21.333333 0 0 0 0 30.179556l80.455111 80.455111a21.333333 21.333333 0 0 0 30.165333 0l170.965334-170.965333a21.333333 21.333333 0 0 0 0-30.165334z m-45.255111 15.075556l-140.8 140.8-50.275556-50.289778 140.8-140.8 50.275556 50.289778z" fill="#191919" p-id="1082"></path><path d="M252.117333 771.882667l-83.015111-7.793778 21.262222-82.261333L116.622222 645.916444l47.744-71.608888-55.580444-59.704889 68.494222-52.295111-30.72-76.288 80.967111-26.680889-2.133333-83.669334 83.655111 2.133334 26.695111-80.952889 76.273778 30.72 52.309333-68.494222 59.690667 55.580444 71.608889-47.758222 35.911111 73.742222 82.275555-21.262222 7.793778 83.015111 83.015111 7.793778-21.262222 82.275555 73.742222 35.911111-47.758222 71.608889 55.580444 59.690667L796.444444 611.982222l30.705778 76.273778-80.952889 26.695111 2.133334 83.669333-83.669334-2.133333-26.680889 80.952889-76.288-30.72-52.295111 68.494222-59.704889-55.580444-71.608888 47.744-35.911112-73.742222-82.261333 21.262222z" fill="#BBDB4A" p-id="1083"></path><path d="M252.117333 771.882667C300.984889 689.820444 366.279111 607.943111 448 526.222222s172.928-156.330667 273.607111-223.829333l83.015111 7.793778-21.262222 82.275555 73.742222 35.911111-47.758222 71.608889 55.580444 59.690667L796.444444 611.982222l30.705778 76.273778-80.952889 26.695111 2.133334 83.669333-83.669334-2.133333-26.680889 80.952889-76.288-30.72-52.295111 68.494222-59.704889-55.580444-71.608888 47.744-35.911112-73.742222-82.261333 21.262222-7.793778-83.015111z" fill="#FFF399" p-id="1084"></path><path d="M807.281778 281.870222l-83.015111-7.793778a28.444444 28.444444 0 0 0-18.488889 4.693334c-102.215111 68.508444-194.844444 144.298667-277.902222 227.342222-83.299556 83.313778-150.058667 167.04-200.206223 251.221333a28.444444 28.444444 0 0 0-3.882666 17.208889l7.793777 83.015111 0.298667 2.247111a28.444444 28.444444 0 0 0 35.143111 22.641778l59.761778-15.459555 25.742222 52.849777 0.995556 1.877334a28.444444 28.444444 0 0 0 40.348444 9.329778l52.892445-35.271112 43.235555 40.248889 1.578667 1.365334a28.444444 28.444444 0 0 0 40.419555-4.906667l39.153778-51.299556 56.206222 22.641778 2.090667 0.753778a28.444444 28.444444 0 0 0 35.541333-18.232889l20.067556-60.899555 62.549333 1.607111 2.417778-0.042667a28.444444 28.444444 0 0 0 26.737778-29.127111l-1.592889-62.549333 60.885333-20.053334 2.076445-0.782222a28.444444 28.444444 0 0 0 15.402666-36.864l-22.613333-56.206222 51.271111-39.139556 1.607111-1.322666a28.444444 28.444444 0 0 0 1.948445-40.675556l-40.248889-43.235556 35.271111-52.906666 1.109333-1.806222a28.444444 28.444444 0 0 0-12.316444-39.537778l-52.849778-25.742222 15.445333-59.747556a28.444444 28.444444 0 0 0-24.888888-35.441778z m-2.659556 28.316445l-21.262222 82.275555 73.742222 35.911111-47.758222 71.608889 55.580444 59.690667L796.444444 611.982222l30.705778 76.273778-80.952889 26.695111 2.133334 83.669333-83.669334-2.133333-26.680889 80.952889-76.288-30.72-52.295111 68.494222-59.704889-55.580444-71.608888 47.744-35.911112-73.742222-82.261333 21.262222-7.793778-83.015111C300.984889 689.820444 366.279111 607.943111 448 526.222222s172.928-156.330667 273.607111-223.829333l83.015111 7.793778z" fill="#191919" p-id="1085"></path><path d="M807.281778 281.870222l-59.562667-5.589333-5.589333-59.562667-0.298667-2.232889a28.444444 28.444444 0 0 0-35.128889-22.641777l-59.776 15.431111-25.728-52.835556-0.995555-1.877333a28.444444 28.444444 0 0 0-40.362667-9.329778l-52.906667 35.271111-43.235555-40.248889-1.564445-1.365333a28.444444 28.444444 0 0 0-40.419555 4.920889l-39.153778 51.271111-56.192-22.613333-2.090667-0.753778a28.444444 28.444444 0 0 0-35.555555 18.232889l-20.053334 60.871111-62.549333-1.578667-2.417778 0.028445a28.444444 28.444444 0 0 0-26.737777 29.127111l1.578666 62.535111-60.871111 20.081778-2.090667 0.782222a28.444444 28.444444 0 0 0-15.402666 36.849778l22.627555 56.192-51.285333 39.168-1.607111 1.322666a28.444444 28.444444 0 0 0-1.934222 40.675556l40.248889 43.221333-35.271112 52.906667-1.123555 1.820444a28.444444 28.444444 0 0 0 12.330667 39.537778l52.835555 25.713778-15.445333 59.776-0.469334 2.204444a28.444444 28.444444 0 0 0 25.358223 33.237334l59.562666 5.575111 5.575111 59.562666 0.298667 2.247111a28.444444 28.444444 0 0 0 35.143111 22.641778l59.761778-15.459555 25.742222 52.849777 0.995556 1.877334a28.444444 28.444444 0 0 0 40.348444 9.329778l52.906667-35.271112 43.235555 40.248889 1.564445 1.365334a28.444444 28.444444 0 0 0 40.419555-4.906667l39.153778-51.299556 56.206222 22.641778 2.090667 0.753778a28.444444 28.444444 0 0 0 35.541333-18.232889l20.053334-60.899555 62.563555 1.607111 2.417778-0.042667a28.444444 28.444444 0 0 0 26.737778-29.127111l-1.592889-62.549333 60.885333-20.053334 2.076445-0.782222a28.444444 28.444444 0 0 0 15.402666-36.864l-22.613333-56.206222 51.271111-39.139556 1.607111-1.322666a28.444444 28.444444 0 0 0 1.948445-40.675556l-40.248889-43.235556 35.271111-52.906666 1.109333-1.806222a28.444444 28.444444 0 0 0-12.316444-39.537778l-52.849778-25.742222 15.445333-59.747556a28.444444 28.444444 0 0 0-24.888888-35.441778z m-38.556445 53.518222l-12.913777 49.948445-0.497778 2.318222a28.444444 28.444444 0 0 0 15.587555 30.378667l44.472889 21.632-29.696 44.529778-1.194666 1.976888a28.444444 28.444444 0 0 0 4.039111 33.180445l34.204444 36.736-43.548444 33.28-1.834667 1.521778a28.444444 28.444444 0 0 0-7.296 31.715555l19.399111 48.128-52.167111 17.208889-2.176 0.810667a28.444444 28.444444 0 0 0-17.351111 26.922666l1.379555 53.731556-53.745777-1.365333-2.332445 0.028444a28.444444 28.444444 0 0 0-25.400889 19.498667l-17.194666 52.138666-48.142223-19.370666-2.247111-0.796445a28.444444 28.444444 0 0 0-30.976 9.912889l-33.28 43.548445-36.736-34.190223-1.749333-1.507555a28.444444 28.444444 0 0 0-33.422222-1.336889l-44.515556 29.667556-21.646222-44.444445-1.123556-2.090667a28.444444 28.444444 0 0 0-31.573333-12.999111l-49.934222 12.899556-4.693333-49.777778-0.341334-2.517333a28.444444 28.444444 0 0 0-25.315555-23.139556l-49.777778-4.693333 12.913778-49.92 0.497777-2.332445a28.444444 28.444444 0 0 0-15.587555-30.364444l-44.458667-21.660444 29.681778-44.515556 1.208889-1.962667a28.444444 28.444444 0 0 0-4.053333-33.194666l-34.204445-36.750223 43.562667-33.265777 1.820444-1.521778a28.444444 28.444444 0 0 0 7.296-31.701333l-19.384889-48.156445 52.152889-17.180444 2.190222-0.824889a28.444444 28.444444 0 0 0 17.351112-26.908445l-1.393778-53.76 53.76 1.393778 2.318222-0.042667a28.444444 28.444444 0 0 0 25.415111-19.484444l17.180445-52.167111 48.156444 19.399111 2.232889 0.796444a28.444444 28.444444 0 0 0 30.990222-9.927111l33.28-43.562666 36.736 34.218666 1.749333 1.493334a28.444444 28.444444 0 0 0 33.408 1.351111l44.515556-29.696 21.646222 44.472889 1.123556 2.076444a28.444444 28.444444 0 0 0 31.573333 13.013333l49.948445-12.928 4.679111 49.792a28.444444 28.444444 0 0 0 25.656889 25.656889l49.777777 4.679111z" fill="#191919" p-id="1086"></path><path d="M380.558222 748.501333c42.510222 39.424 180.736 32.170667 272.355556-59.448889 91.619556-91.619556 112.540444-224.725333 59.448889-272.355555-53.091556-47.616-374.300444 292.366222-331.804445 331.804444z" fill="#FCD74B" p-id="1087"></path><path d="M652.231111 576.142222l-1.237333-1.109333a14.222222 14.222222 0 0 0-19.982222 2.375111c-17.137778 21.76-49.152 48.696889-84.238223 72.092444a14.222222 14.222222 0 0 0 15.786667 23.665778c37.361778-24.903111 71.466667-53.617778 90.808889-78.165333a14.222222 14.222222 0 0 0-1.137778-18.872889z m47.573333-54.343111a14.222222 14.222222 0 0 0-27.136-8.533333 125.724444 125.724444 0 0 1-8.334222 20.067555 14.222222 14.222222 0 1 0 25.258667 13.084445c4.195556-8.106667 7.594667-16.312889 10.211555-24.618667z" fill="#FFFFFF" p-id="1088"></path><path d="M371.854222 310.812444a14.222222 14.222222 0 0 1 14.222222 14.222223v21.319111h21.333334a14.222222 14.222222 0 0 1 14.122666 12.444444l0.099556 1.792a14.222222 14.222222 0 0 1-14.222222 14.222222h-35.555556a14.222222 14.222222 0 0 1-14.222222-14.222222v-35.555555a14.222222 14.222222 0 0 1 14.222222-14.222223zM243.854222 495.701333a14.222222 14.222222 0 0 1 14.222222 14.222223v21.319111h21.333334a14.222222 14.222222 0 0 1 14.122666 12.444444l0.099556 1.792a14.222222 14.222222 0 0 1-14.222222 14.222222h-35.555556a14.222222 14.222222 0 0 1-14.222222-14.222222v-35.555555a14.222222 14.222222 0 0 1 14.222222-14.222223zM528.298667 282.368a14.222222 14.222222 0 0 1 14.222222 14.222222v21.319111h21.333333a14.222222 14.222222 0 0 1 14.122667 12.444445l0.099555 1.792a14.222222 14.222222 0 0 1-14.222222 14.222222h-35.555555a14.222222 14.222222 0 0 1-14.222223-14.222222v-35.555556a14.222222 14.222222 0 0 1 14.222223-14.222222zM359.367111 440.533333a14.222222 14.222222 0 0 1 14.222222 14.222223v21.319111h21.333334a14.222222 14.222222 0 0 1 14.108444 12.444444l0.113778 1.792a14.222222 14.222222 0 0 1-14.222222 14.222222h-35.555556a14.222222 14.222222 0 0 1-14.222222-14.222222v-35.555555a14.222222 14.222222 0 0 1 14.222222-14.222223z" fill="#729008" p-id="1089"></path></svg>